# xmcd
#
# Track frame offsets:
#	150
#	19225
#	37084
#	51863
#	72161
#	86958
#	110890
#	133974
#	150996
#	169072
#
# Disc length: 2515 seconds
#
# Revision: 0
# Processed by: cddbd v1.5.2PL0 Copyright (c) Steve Scherf et al.
# Submitted via: EZCDAudioConverter 1.1.0.1
#
DISCID=8e09d10a
DTITLE=Levent Yüksel - Topyekün
DYEAR=2013
DGENRE=Pop
TTITLE0=Topyekün
TTITLE1=Tehdit
TTITLE2=İtirafçı Olma
TTITLE3=Beş Duyu
TTITLE4=Olsun
TTITLE5=Razıysan
TTITLE6=Sardunya
TTITLE7=Olamadım
TTITLE8=Beddua
TTITLE9=Gidiyorum
EXTD=
EXTT0=
EXTT1=
EXTT2=
EXTT3=
EXTT4=
EXTT5=
EXTT6=
EXTT7=
EXTT8=
EXTT9=
PLAYORDER=
